<svg xmlns="http://www.w3.org/2000/svg" viewBox="0 0 631 250"><defs><style>.cls-1{fill:#fff;}</style></defs><g id="Layer_2" data-name="Layer 2"><g id="Layer_1-2" data-name="Layer 1"><g id="g10"><g id="g14"><path id="path16" class="cls-1" d="M0,14.28V214.2a14.28,14.28,0,0,0,14.28,14.29h71.4A14.28,14.28,0,0,0,100,214.2V128.52a14.28,14.28,0,0,0-14.28-14.28H50A14.28,14.28,0,0,1,35.7,100V50A14.28,14.28,0,0,1,50,35.7H178.5A14.28,14.28,0,0,1,192.78,50v50a14.28,14.28,0,0,1-14.28,14.28H142.8a14.29,14.29,0,0,0-14.28,14.28V214.2a14.29,14.29,0,0,0,14.28,14.29h71.4a14.29,14.29,0,0,0,14.29-14.29V14.28A14.28,14.28,0,0,0,214.2,0H14.28A14.28,14.28,0,0,0,0,14.28Z"/></g></g><path class="cls-1" d="M312.86,40h-23.5v65.21h-9.59V40H256.33V32.13h56.53Z"/><path class="cls-1" d="M331.53,57.49a19.75,19.75,0,0,1,16.07-7.58q17.22,0,17.37,19.43v35.89h-9.29V69.28c0-3.91-.93-6.81-2.68-8.68s-4.5-2.81-8.21-2.81a13.37,13.37,0,0,0-7.93,2.41,16.36,16.36,0,0,0-5.33,6.32v38.71h-9.28V28.12h9.28Z"/><path class="cls-1" d="M412.41,99.86q-5.42,6.38-15.91,6.38-8.69,0-13.23-5t-4.59-14.94V50.91H388V86Q388,98.36,398,98.35q10.64,0,14.15-7.93V50.91h9.29v54.32h-8.84Z"/><path class="cls-1" d="M444.34,50.91l.31,6.83a19.78,19.78,0,0,1,16.26-7.83q17.22,0,17.37,19.43v35.89H469V69.28c0-3.91-.92-6.81-2.68-8.68s-4.49-2.81-8.21-2.81a13.37,13.37,0,0,0-7.93,2.41,16.25,16.25,0,0,0-5.32,6.32v38.71h-9.29V50.91Z"/><path class="cls-1" d="M490,77.62q0-12.51,5.92-20.11a18.73,18.73,0,0,1,15.52-7.6q9.54,0,15.11,6.52V28.12h9.29v77.11h-8.54l-.45-5.82q-5.58,6.82-15.51,6.83A18.55,18.55,0,0,1,496,98.5q-6-7.73-6-20.18Zm9.29,1q0,9.24,3.81,14.46a12.35,12.35,0,0,0,10.55,5.22q8.84,0,12.9-7.93v-25a13.66,13.66,0,0,0-12.8-7.68,12.41,12.41,0,0,0-10.65,5.27Q499.32,68.32,499.32,78.67Z"/><path class="cls-1" d="M572.82,106.24q-11.05,0-18-7.26t-6.92-19.4V77.87A32.54,32.54,0,0,1,551,63.44a24,24,0,0,1,8.64-9.94,21.64,21.64,0,0,1,12-3.59q10.59,0,16.47,7t5.87,20v3.86H557.2q.21,8,4.7,13a14.73,14.73,0,0,0,11.42,4.94,16.23,16.23,0,0,0,8.33-2,21,21,0,0,0,6-5.33l5.67,4.42Q586.48,106.24,572.82,106.24Zm-1.16-48.7a12.39,12.39,0,0,0-9.44,4.09q-3.81,4.09-4.72,11.47h27.22v-.7q-.4-7.08-3.82-11A11.66,11.66,0,0,0,571.66,57.54Z"/><path class="cls-1" d="M631,59.24a28.28,28.28,0,0,0-4.57-.35q-9.13,0-12.4,7.78v38.56h-9.28V50.91h9l.15,6.28a14.46,14.46,0,0,1,13-7.28,9.44,9.44,0,0,1,4.11.7Z"/><path class="cls-1" d="M303.67,194.83H272v25.9h36.8v7.88H262.35V155.52h45.94v7.88H272v23.54h31.68Z"/><path class="cls-1" d="M328.12,174.29l.3,6.83a19.8,19.8,0,0,1,16.27-7.83q17.22,0,17.37,19.43v35.89h-9.29V192.67c0-3.92-.93-6.81-2.68-8.69s-4.5-2.81-8.21-2.81a13.4,13.4,0,0,0-7.94,2.41,16.37,16.37,0,0,0-5.32,6.33v38.7h-9.28V174.29Z"/><path class="cls-1" d="M373.86,201q0-12.7,5.87-20.21a18.79,18.79,0,0,1,15.56-7.5q9.94,0,15.52,7l.45-6h8.48v53q0,10.55-6.25,16.62T396.7,250a28,28,0,0,1-11.5-2.51,19.73,19.73,0,0,1-8.58-6.88l4.82-5.57q6,7.38,14.61,7.38,6.78,0,10.57-3.82t3.79-10.74v-4.67q-5.58,6.44-15.22,6.43a18.54,18.54,0,0,1-15.43-7.68Q373.85,214.25,373.86,201Zm9.34,1.05q0,9.19,3.76,14.44a12.23,12.23,0,0,0,10.54,5.24q8.79,0,12.91-8V189q-4.28-7.78-12.81-7.78A12.35,12.35,0,0,0,387,186.44Q383.2,191.72,383.2,202.05Z"/><path class="cls-1" d="M433.8,159.88a5.55,5.55,0,0,1,1.38-3.81,5.18,5.18,0,0,1,4.09-1.56,5.27,5.27,0,0,1,4.12,1.56,5.48,5.48,0,0,1,1.41,3.81,5.31,5.31,0,0,1-1.41,3.77,5.38,5.38,0,0,1-4.12,1.5,5.29,5.29,0,0,1-4.09-1.5A5.38,5.38,0,0,1,433.8,159.88Zm10,68.73h-9.29V174.29h9.29Z"/><path class="cls-1" d="M467.49,174.29l.3,6.83a19.8,19.8,0,0,1,16.27-7.83q17.2,0,17.37,19.43v35.89h-9.29V192.67c0-3.92-.93-6.81-2.69-8.69s-4.49-2.81-8.21-2.81a13.39,13.39,0,0,0-7.93,2.41,16.37,16.37,0,0,0-5.32,6.33v38.7H458.7V174.29Z"/><path class="cls-1" d="M538,229.62q-11.06,0-18-7.26T513.07,203v-1.71a32.54,32.54,0,0,1,3.09-14.43,24,24,0,0,1,8.64-9.94,21.7,21.7,0,0,1,12-3.59q10.59,0,16.47,7t5.87,20v3.86h-36.8q.2,8,4.7,13A14.74,14.74,0,0,0,538.48,222a16.16,16.16,0,0,0,8.33-2,20.94,20.94,0,0,0,6-5.32l5.67,4.41Q551.64,229.62,538,229.62Zm-1.16-48.7a12.38,12.38,0,0,0-9.44,4.09q-3.81,4.1-4.72,11.47h27.21v-.7q-.4-7.08-3.81-11A11.69,11.69,0,0,0,536.82,180.92Z"/></g></g></svg>