<svg xmlns="http://www.w3.org/2000/svg" viewBox="0 0 160 160"><defs><style>.cls-1{fill:#fff;}</style></defs><g id="Layer_2" data-name="Layer 2"><g id="Layer_1-2" data-name="Layer 1"><g id="g10"><g id="g14"><path id="path16" class="cls-1" d="M0,10V150a10,10,0,0,0,10,10H60a10,10,0,0,0,10-10V90A10,10,0,0,0,60,80H35A10,10,0,0,1,25,70V35A10,10,0,0,1,35,25h90a10,10,0,0,1,10,10V70a10,10,0,0,1-10,10H100A10,10,0,0,0,90,90v60a10,10,0,0,0,10,10h50a10,10,0,0,0,10-10V10A10,10,0,0,0,150,0H10A10,10,0,0,0,0,10Z"/></g></g></g></g></svg>